<svg xmlns="http://www.w3.org/2000/svg" viewBox="0 0 44 44" fill="none">
    <defs>
        <!-- Blue gradient fill -->
        <linearGradient id="blueGradient" x1="0" y1="0" x2="44" y2="44" gradientUnits="userSpaceOnUse">
            <stop stop-color="#4F9CF9"/>
            <stop offset="1" stop-color="#1669D4"/>
        </linearGradient>

        <!-- Knockout mask for handset -->
        <mask id="receiverCutout">
            <!-- White base -->
            <rect width="44" height="44" fill="white"/>
            <!-- Slightly shifted handset (left and down) -->
            <path transform="translate(-1, 1)" d="M16 26.5a1.5 1.5 0 0 1 0-2.1l2.2-2.2a1 1 0 0 1 1.4 0l1.3 1.3a1 1 0 0 0 1.4 0l2.6-2.6a1 1 0 0 0 0-1.4l-1.3-1.3a1 1 0 0 1 0-1.4l2.2-2.2a1.5 1.5 0 0 1 2.1 0l1.6 1.6a2.25 2.25 0 0 1 0 3.2l-9 9a2.25 2.25 0 0 1-3.2 0l-1.6-1.6Z" fill="black"/>
        </mask>
    </defs>

    <!-- Rounded house shape -->
    <path d="
    M22 4
    C21 4, 20 5, 19 6
    L4.5 18.5
    Q4 19, 4 20
    H9
    V35
    A3 3 0 0 0 12 38
    H32
    A3 3 0 0 0 35 35
    V20
    H40
    Q40 19, 39.5 18.5
    L25 6
    C24 5, 23 4, 22 4
    Z"
          fill="url(#blueGradient)"
          mask="url(#receiverCutout)"/>
</svg>
